<?xml version="1.0" encoding="UTF-8" standalone="no"?>
<!-- Created with Inkscape (http://www.inkscape.org/) -->

<svg
   xmlns:dc="http://purl.org/dc/elements/1.1/"
   xmlns:cc="http://creativecommons.org/ns#"
   xmlns:rdf="http://www.w3.org/1999/02/22-rdf-syntax-ns#"
   xmlns:svg="http://www.w3.org/2000/svg"
   xmlns="http://www.w3.org/2000/svg"
   xmlns:sodipodi="http://sodipodi.sourceforge.net/DTD/sodipodi-0.dtd"
   xmlns:inkscape="http://www.inkscape.org/namespaces/inkscape"
   id="svg6408"
   version="1.1"
   inkscape:version="0.91 r13725"
   xml:space="preserve"
   width="1050"
   height="250"
   viewBox="0 0 1150 250"
   sodipodi:docname="sunpy_logo.svg">
   <defs>
     <style type="text/css">@import url(http://fonts.googleapis.com/css?family=Source+Sans+Pro);</style>
   </defs>
   <metadata
     id="metadata6414"><rdf:RDF><cc:Work
         rdf:about=""><dc:format>image/svg+xml</dc:format><dc:type
           rdf:resource="http://purl.org/dc/dcmitype/StillImage" /><dc:title></dc:title></cc:Work></rdf:RDF></metadata><defs
     id="defs6412"><clipPath
       clipPathUnits="userSpaceOnUse"
       id="clipPath6422"><path
         d="m 96.377,140.225 -5.519,-2.453 c -4.102,-2.059 -15.917,-11.28 -15.917,-11.28 l 0,0 C 73.06,124.673 67.46,118.167 63.812,111.039 l 0,0 C 60.439,104.45 58.931,97.209 58.884,95.481 l 0,0 c 0,0 0.689,-7.888 0.995,-9.174 l 0,0 c 0.284,-0.744 2.278,-6.832 3.504,-8.993 l 0,0 2.672,-3.996 c 1.666,-2.133 3.676,-4.176 6.087,-6.112 l 0,0 3.026,-2.229 c 1.345,-0.906 9.288,-4.904 11.071,-5.569 l 0,0 5.48,-1.701 c 7.242,-1.779 13.955,-1.579 20.325,-0.094 l 0,0 c 0.743,0.284 1.509,0.49 2.296,0.614 l 0,0 c 1.371,0.519 9.575,3.383 9.575,3.383 l 0,0 c 3.763,1.485 7.41,3.41 10.677,6.749 l 0,0 c 0.304,0.525 0.607,1.051 0.912,1.576 l 0,0 c 3.046,4.873 -3.483,8.645 -8.293,9.161 l 0,0 c -4.095,0.438 -7.248,-1.628 -10.976,-3.039 l 0,0 C 110.369,73.839 104.211,72.945 97.22,73.946 l 0,0 C 87.018,75.407 77.485,81.875 75.207,90.714 l 0,0 c -0.285,0.743 -0.489,1.508 -0.615,2.296 l 0,0 c -0.8,4.399 -0.7,9.038 2,14.374 l 0,0 c 0.452,1.249 1.596,3.229 2.453,4.244 l 0,0 c 5.551,8.168 13.18,11.724 20.532,13.691 l 0,0 c 7.375,1.972 15.825,2.31 24.776,-2.19 l 0,0 c 0.368,0.157 0.951,-0.49 1.405,-0.649 l 0,0 c 0.242,-0.14 0.485,-0.28 0.728,-0.421 l 0,0 c 0.365,-0.312 1.217,-0.495 1.263,-0.892 l 0,0 c 2.452,-1.088 2.432,-2.835 3.122,-4.393 l 0,0 c 0.251,-0.617 0.422,-1.254 0.512,-1.913 l 0,0 c 1.889,-5.722 -1.508,-12.683 -6.546,-16.922 l 0,0 c -4.942,-4.153 -10.827,-7.91 -16.843,-5.633 l 0,0 c -0.404,-0.035 -1.526,0.614 -1.698,0.982 l 0,0 c -3.98,3.035 -5.354,6.768 -4.409,11.122 l 0,0 c 3.534,-1.139 4.004,-5.806 7.73,-7.057 l 0,0 c 3.004,-1.009 5.731,0.948 7.958,3.974 l 0,0 c 0.304,0.525 0.609,1.05 0.912,1.576 l 0,0 c 3.15,6.138 0.671,9.115 -4.237,13.099 l 0,0 c -0.768,0.443 -1.538,0.887 -2.304,1.331 l 0,0 c -9.881,3.466 -17.341,4.085 -23.472,-6.465 l 0,0 c -0.537,-0.929 -1.075,-1.859 -1.612,-2.789 l 0,0 C 82.388,101.411 85.597,96.47 88.953,91.828 l 0,0 c 2.096,-2.904 4.637,-6.576 8.381,-8.727 l 0,0 c 7.684,-4.41 16.175,-2.358 22.182,-0.527 l 0,0 c 3.868,1.18 7.884,2.81 11.545,5.211 l 0,0 3.617,2.76 c 1.322,1.171 2.565,2.473 3.692,3.94 l 0,0 c 1.516,1.975 2.674,4.04 3.547,6.142 l 0,0 1.383,4.3 c 0.985,4.228 0.957,8.48 0.3,12.386 l 0,0 -1.459,4.916 c -1.926,4.548 -5.808,8.572 -11.492,12.114 l 0,0 -3.596,2.268 c -0.586,0.339 -1.174,0.679 -1.76,1.017 l 0,0 c -0.613,-0.023 -1.438,0.778 -2.132,1.071 l 0,0 c -2.822,1.484 -5.501,2.503 -8.076,3.136 l 0,0 -4.359,0.725 c -0.791,0.068 -1.573,0.101 -2.348,0.101 l 0,0 c -4.151,0 -8.088,-0.942 -12.001,-2.436"
         id="path6424"
         inkscape:connector-curvature="0" /></clipPath></defs><sodipodi:namedview
     pagecolor="#ffffff"
     bordercolor="#666666"
     borderopacity="1"
     objecttolerance="10"
     gridtolerance="10"
     guidetolerance="10"
     inkscape:pageopacity="0"
     inkscape:pageshadow="2"
     inkscape:window-width="1220"
     inkscape:window-height="656"
     id="namedview6410"
     showgrid="false"
     inkscape:zoom="0.51016784"
     inkscape:cx="360.66562"
     inkscape:cy="125"
     inkscape:window-x="0"
     inkscape:window-y="0"
     inkscape:window-maximized="0"
     inkscape:current-layer="g6486" /><g
     id="g6416"
     inkscape:groupmode="layer"
     inkscape:label="sunpy logo diecut"
     transform="matrix(1.25,0,0,-1.25,0,250)"><g
       id="g6418"><g
         id="g6420"
         clip-path="url(#clipPath6422)"><path
           d="m 57.147,143.883 88.892,0 0,-89.092 -88.892,0 0,89.092 z"
           style="fill:#fed20c;fill-opacity:1;fill-rule:nonzero;stroke:none"
           id="path6426"
           inkscape:connector-curvature="0" /><g
           id="g6428"
           transform="translate(95.5013,142.9197)"><path
             d="M 0,0 C -2.633,-1.005 -5.261,-2.144 -7.898,-3.387 -8.648,-3.741 -9.4,-4.135 -10.151,-4.512 L 5.937,-16.868 0,0 Z"
             style="fill:#fe7900;fill-opacity:1;fill-rule:nonzero;stroke:none"
             id="path6430"
             inkscape:connector-curvature="0" /></g><g
           id="g6432"
           transform="translate(64.724,114.9028)"><path
             d="M 0,0 C -1.553,-2.517 -2.939,-5.105 -4.101,-7.729 L 11.867,-7.674 0,0 Z"
             style="fill:#fe7900;fill-opacity:1;fill-rule:nonzero;stroke:none"
             id="path6434"
             inkscape:connector-curvature="0" /></g><g
           id="g6436"
           transform="translate(61.971,79.6566)"><path
             d="M 0,0 C 1.652,-2.912 3.544,-5.76 5.709,-8.536 L 15.425,7.343 0,0 Z"
             style="fill:#fe7900;fill-opacity:1;fill-rule:nonzero;stroke:none"
             id="path6438"
             inkscape:connector-curvature="0" /></g><g
           id="g6440"
           transform="translate(105.8626,55.1874)"><path
             d="M 0,0 C 3.644,0.391 7.127,0.963 10.449,1.717 L 2.429,18.462 0,0 Z"
             style="fill:#fe7900;fill-opacity:1;fill-rule:nonzero;stroke:none"
             id="path6442"
             inkscape:connector-curvature="0" /></g><g
           id="g6444"
           transform="translate(130.1881,83.2698)"><path
             d="M 0,0 C 2.409,1.58 4.734,3.342 6.942,5.299 L -5.545,14.26 0,0 Z"
             style="fill:#fe7900;fill-opacity:1;fill-rule:nonzero;stroke:none"
             id="path6446"
             inkscape:connector-curvature="0" /></g><g
           id="g6448"
           transform="translate(143.5577,118.6568)"><path
             d="m 0,0 c -0.037,0.218 -0.066,0.44 -0.104,0.657 -0.425,1.046 -0.715,2.129 -0.869,3.249 -0.379,1.513 -0.889,2.99 -1.504,4.441 L -15.583,1.52 0,0 Z"
             style="fill:#fe7900;fill-opacity:1;fill-rule:nonzero;stroke:none"
             id="path6450"
             inkscape:connector-curvature="0" /></g><g
           id="g6452"
           transform="translate(130.8869,134.5032)"><path
             d="M 0,0 C -0.43,0.268 -0.848,0.54 -1.288,0.806 -2.375,1.66 -4.547,2.223 -4.923,3.267 -5.958,3.866 -6.994,4.465 -8.03,5.064 L -8.967,-12.262 0,0 Z"
             style="fill:#fe7900;fill-opacity:1;fill-rule:nonzero;stroke:none"
             id="path6454"
             inkscape:connector-curvature="0" /></g><g
           id="g6456"
           transform="translate(80.3752,131.2543)"><path
             d="M 0,0 C -2.365,-1.917 -4.637,-3.903 -6.762,-5.945 -6.868,-6.047 -6.975,-6.157 -7.08,-6.26 L 7.894,-14.128 0,0 Z"
             style="fill:#fe7900;fill-opacity:1;fill-rule:nonzero;stroke:none"
             id="path6458"
             inkscape:connector-curvature="0" /></g><g
           id="g6460"
           transform="translate(59.1284,98.79)"><path
             d="M 0,0 C -0.077,-2.844 0.078,-5.638 0.439,-8.39 L 14.167,-2.166 0,0 Z"
             style="fill:#fe7900;fill-opacity:1;fill-rule:nonzero;stroke:none"
             id="path6462"
             inkscape:connector-curvature="0" /></g><g
           id="g6464"
           transform="translate(77.3958,63)"><path
             d="M 0,0 C 2.968,-1.677 6.096,-3.278 9.405,-4.799 L 13.774,12.846 0,0 Z"
             style="fill:#fe7900;fill-opacity:1;fill-rule:nonzero;stroke:none"
             id="path6466"
             inkscape:connector-curvature="0" /></g><g
           id="g6468"
           transform="translate(131.1661,109.5537)"><path
             d="m 0,0 12.25,-8.041 c 1.096,2.64 1.945,5.311 2.569,7.99 L 0,0 Z"
             style="fill:#fe7900;fill-opacity:1;fill-rule:nonzero;stroke:none"
             id="path6470"
             inkscape:connector-curvature="0" /></g><g
           id="g6472"
           transform="translate(117.4112,141.3359)"><path
             d="M 0,0 C -2.91,0.715 -5.751,1.181 -8.538,1.421 L -6.525,-13.681 0,0 Z"
             style="fill:#fe7900;fill-opacity:1;fill-rule:nonzero;stroke:none"
             id="path6474"
             inkscape:connector-curvature="0" /></g><g
           id="g6476"
           transform="translate(114.8606,79.6444)"><path
             d="M 0,0 C 2.568,0.435 5.135,1.054 7.672,1.876 L 0.57,13.826 0,0 Z"
             style="fill:#fe7900;fill-opacity:1;fill-rule:nonzero;stroke:none"
             id="path6478"
             inkscape:connector-curvature="0" /></g><g
           id="g6480"
           transform="translate(89.9062,87.1187)"><path
             d="M 0,0 C 2.363,-2.421 4.918,-4.705 7.67,-6.807 L 15.187,9.601 0,0 Z"
             style="fill:#fe7900;fill-opacity:1;fill-rule:nonzero;stroke:none"
             id="path6482"
             inkscape:connector-curvature="0" /></g></g></g><g
       id="g6484"><g
         id="g6486"
         clip-path="url(#clipPath6488)"><g
           id="g6492"
           transform="translate(173.5892,108.9943)"><path
             d="m 0,0 c 4.961,0.519 12.26,1.909 12.044,-3.361 l 0,-1.82 C 11.689,-8.642 8.053,-9.08 4.903,-9.943 c -5.994,-1.646 -13.166,-3.192 -19.608,-3.641 l -1.4,0 c -2.859,0.619 -7.603,2.136 -7.423,5.461 0.123,2.247 3.495,3.6 6.022,4.482 C -12.179,-1.779 -6.051,-0.631 0,0"
             style="fill:#fed20c;fill-opacity:1;fill-rule:nonzero;stroke:none"
             id="path6494"
             inkscape:connector-curvature="0" /></g><g
           id="g6496"
           transform="translate(178.9804,60.6714)"><path
             d="m 0,0 c 1.617,-1.874 0.327,-7.324 -1.96,-7.842 -1.46,-0.333 -3.438,0.694 -4.622,1.26 -6.916,3.291 -12.307,6.373 -18.906,10.504 -2.102,1.313 -5.767,3.028 -6.164,5.461 -0.467,2.854 1.518,5.439 4.062,5.742 2.772,0.333 6.419,-1.039 8.544,-2.101 2.515,-1.26 4.598,-2.755 6.441,-4.062 C -7.889,5.619 -4.015,3.092 -0.281,0.28 -0.14,0.175 -0.111,0.128 0,0"
             style="fill:#fed20c;fill-opacity:1;fill-rule:nonzero;stroke:none"
             id="path6498"
             inkscape:connector-curvature="0" /></g><g
           id="g6500"
           transform="translate(163.2475,153.1529)"><path
             d="M 0,0 C 2.72,0.018 5.427,-2.568 5.043,-5.462 4.827,-7.078 2.906,-8.671 1.401,-10.084 -3.168,-14.367 -8.84,-19.285 -15.544,-20.587 l -1.681,0 c -2.153,0.455 -4.091,1.319 -4.341,3.361 -0.309,2.504 2.655,4.745 3.922,5.882 3.507,3.151 7.306,5.363 11.343,7.983 C -4.51,-2.195 -2.311,-0.012 0,0"
             style="fill:#fed20c;fill-opacity:1;fill-rule:nonzero;stroke:none"
             id="path6502"
             inkscape:connector-curvature="0" /></g><g
           id="g6504"
           transform="translate(147.8197,31.8726)"><path
             d="m 0,0 c 0.653,-1.454 1.581,-3.215 1.54,-4.482 -0.081,-2.469 -2.76,-4.761 -5.461,-4.621 -2.212,0.117 -2.912,1.528 -4.482,2.801 -0.502,0.619 -1.062,1.178 -1.681,1.681 -5.637,6.034 -10.025,13.316 -12.464,22.547 l 0,1.821 c 0.11,1.862 2.147,4.173 4.201,4.482 3.548,0.531 6.163,-2.235 7.842,-4.34 C -6.081,14.349 -3.105,6.909 0,0"
             style="fill:#fed20c;fill-opacity:1;fill-rule:nonzero;stroke:none"
             id="path6506"
             inkscape:connector-curvature="0" /></g><g
           id="g6508"
           transform="translate(116.3094,183.718)"><path
             d="M 0,0 C 3.355,-0.66 5.043,-2.988 4.762,-7.282 4.441,-7.475 4.71,-8.257 4.621,-8.683 4.108,-15.166 3.233,-24.876 0.7,-30.39 c -0.951,-2.072 -2.784,-4.775 -6.022,-4.202 -2.673,0.472 -3.583,3.314 -3.781,6.582 l 0,4.062 c 0.064,4.306 0.823,9.873 1.961,14.004 1.144,4.137 2.334,8.566 5.881,9.943 C -0.84,0 -0.42,0 0,0"
             style="fill:#fed20c;fill-opacity:1;fill-rule:nonzero;stroke:none"
             id="path6510"
             inkscape:connector-curvature="0" /></g><g
           id="g6512"
           transform="translate(109.7276,32.9479)"><path
             d="m 0,0 c -0.322,-0.333 -0.054,-1.254 -0.14,-1.822 -0.636,-6.133 -1.021,-12.516 -5.462,-14.844 l -1.261,0 c -3.519,1.896 -3.84,6.991 -4.34,11.905 -0.094,0.746 0.186,1.866 -0.141,2.38 l 0,1.12 c 0.327,0.701 0.047,2.007 0.141,2.941 0.186,3.239 0.32,6.063 0.98,9.243 0.472,2.289 1.342,6.362 3.641,6.583 2.999,0.292 4.709,-3.891 5.461,-6.583 C -0.146,7.446 -0.041,3.98 0,0"
             style="fill:#fed20c;fill-opacity:1;fill-rule:nonzero;stroke:none"
             id="path6514"
             inkscape:connector-curvature="0" /></g><g
           id="g6516"
           transform="translate(80.7366,51.5747)"><path
             d="m 0,0 0,-2.521 c -1.289,-7.719 -5.228,-15.878 -10.363,-21.286 -1.447,-1.529 -4.026,-4.539 -6.863,-3.362 -0.968,0.402 -1.272,1.589 -1.54,2.943 l 0,1.681 c 1.365,9.371 5.246,16.228 9.943,22.267 0.666,0.547 1.272,1.155 1.821,1.819 C -5.275,3.858 0.117,4.149 0,0"
             style="fill:#fed20c;fill-opacity:1;fill-rule:nonzero;stroke:none"
             id="path6518"
             inkscape:connector-curvature="0" /></g><g
           id="g6520"
           transform="translate(81.1474,151.306)"><path
             d="m 0,0 c 0.637,-2.631 1.996,-6.804 -1.26,-7.423 l -1.401,0 c -1.844,0.164 -2.631,1.384 -3.781,2.241 -0.642,0.759 -1.342,1.459 -2.101,2.101 -5.701,5.252 -12.202,17.658 -6.722,28.01 2.859,-0.42 4.539,-3.064 6.161,-5.322 C -5.187,14.145 -1.89,7.82 0,0"
             style="fill:#fed20c;fill-opacity:1;fill-rule:nonzero;stroke:none"
             id="path6522"
             inkscape:connector-curvature="0" /></g><g
           id="g6524"
           transform="translate(62.0301,127.4807)"><path
             d="m 0,0 c 0.589,-2.713 -1.191,-4.435 -3.501,-4.621 -4.33,-0.351 -9.378,2.597 -12.325,4.341 -3.764,2.229 -6.908,4.563 -9.663,7.002 -0.502,0.618 -1.062,1.179 -1.681,1.68 -1.552,2.236 -4.278,4.033 -3.781,7.843 3.449,0.625 6.745,-0.741 9.664,-1.82 C -15.61,12.33 -10.48,9.809 -5.601,6.302 -3.397,4.721 -0.589,2.732 0,0"
             style="fill:#fed20c;fill-opacity:1;fill-rule:nonzero;stroke:none"
             id="path6526"
             inkscape:connector-curvature="0" /></g><g
           id="g6528"
           transform="translate(55.6683,70.7613)"><path
             d="m 0,0 c 0.449,-2.229 -1.569,-4.686 -2.801,-6.021 -2.801,-3.034 -6.495,-5.344 -10.224,-7.142 -2.216,-1.073 -9.96,-3.531 -10.503,0.419 -0.321,2.312 1.715,3.221 2.521,4.761 0.525,0.41 0.992,0.876 1.4,1.4 2.527,2.027 4.966,4.079 8.263,5.882 C -9.78,0.152 -0.899,4.475 0,0"
             style="fill:#fed20c;fill-opacity:1;fill-rule:nonzero;stroke:none"
             id="path6530"
             inkscape:connector-curvature="0" /></g><g
           id="g6532"
           transform="translate(51.8864,101.0115)"><path
             d="m 0,0 c 0.304,-5.205 -8.817,-5.893 -13.724,-6.302 l -5.042,0 c -6.249,0.66 -12.78,1.039 -15.266,5.462 l 0,0.98 c 1.722,4.674 7.546,5.247 13.305,5.882 0.567,0.088 1.489,-0.181 1.821,0.141 l 2.101,0 c 0.379,-0.321 1.347,-0.053 1.96,-0.141 3.25,-0.274 6.121,-0.448 9.103,-1.4 C -3.501,3.91 -0.151,2.55 0,0"
             style="fill:#fed20c;fill-opacity:1;fill-rule:nonzero;stroke:none"
             id="path6534"
             inkscape:connector-curvature="0" /></g>
<text
           transform="scale(1,-1)"
           style="font-variant:normal;font-weight:bold;font-stretch:normal;font-size:140px;font-family:'Source Sans Pro';-inkscape-font-specification:SourceSansPro-Bold;writing-mode:lr-tb;fill:#f47900;fill-opacity:1;fill-rule:nonzero;stroke:none"
           id="text6536"
           x="194.19119"
           y="-101.42715">sun</text>
<text
           transform="scale(1,-1)"
           style="font-variant:normal;font-weight:normal;font-stretch:normal;font-size:140px;font-family:'Source Sans Pro';-inkscape-font-specification:SourceSansPro-Regular;writing-mode:lr-tb;fill:#444444;fill-opacity:1;fill-rule:nonzero;stroke:none"
           id="text6540"
           x="415.81119"
           y="-101.42715">py</text>
<text
           transform="scale(1,-1)"
           style="font-variant:normal;font-weight:normal;font-stretch:normal;font-size:30px;font-family:'Source Sans Pro';-inkscape-font-specification:SourceSansPro-Regular;writing-mode:lr-tb;fill:#444444;fill-opacity:1;fill-rule:nonzero;stroke:none"
           id="text6541"
           x="200"
           y="-31.42715">A Community Python Library for Solar Physics</text>
</g></g></g></svg>
